<svg width="100" height="100" viewBox="0 0 100 100" fill="none" xmlns="http://www.w3.org/2000/svg">
<g clip-path="url(#clip0_67_13)">
<path d="M66.1389 72.2222C65.1667 74.7222 63.5278 76.3888 61.6667 76.3888H38.1667C36.2778 76.3888 34.6667 74.7222 33.6945 72.2222H2.77783V77.0833C2.92 78.8646 3.75713 80.5186 5.10842 81.688C6.45971 82.8574 8.21674 83.4484 10.0001 83.3333H90.0001C91.7834 83.4484 93.5404 82.8574 94.8917 81.688C96.243 80.5186 97.0801 78.8646 97.2223 77.0833V72.2222H66.1389Z" fill="#1E1E1E"/>
<path d="M19.4445 27.7777H80.5556V66.6666H88.889V21.0277C88.9114 19.8978 88.4857 18.805 87.705 17.9879C86.9244 17.1708 85.852 16.6958 84.7223 16.6666H15.2779C14.1481 16.6958 13.0758 17.1708 12.2951 17.9879C11.5144 18.805 11.0888 19.8978 11.1112 21.0277V66.6666H19.4445V27.7777Z" fill="#1E1E1E"/>
</g>
<defs>
<clipPath id="clip0_67_13">
<rect width="100" height="100" fill="white"/>
</clipPath>
</defs>
</svg>
