<svg width="100" height="100" viewBox="0 0 100 100" fill="none" xmlns="http://www.w3.org/2000/svg">
<path d="M18.75 21.875C18.75 16.9022 20.7254 12.1331 24.2417 8.61675C27.7581 5.10044 32.5272 3.125 37.5 3.125H62.5C67.4728 3.125 72.2419 5.10044 75.7583 8.61675C79.2746 12.1331 81.25 16.9022 81.25 21.875V78.125C81.25 83.0978 79.2746 87.867 75.7583 91.3833C72.2419 94.8996 67.4728 96.875 62.5 96.875H37.5C32.5272 96.875 27.7581 94.8996 24.2417 91.3833C20.7254 87.867 18.75 83.0978 18.75 78.125V21.875ZM37.5 9.375C34.1848 9.375 31.0054 10.692 28.6612 13.0362C26.317 15.3804 25 18.5598 25 21.875V78.125C25 81.4402 26.317 84.6196 28.6612 86.9638C31.0054 89.308 34.1848 90.625 37.5 90.625H62.5C65.8152 90.625 68.9946 89.308 71.3388 86.9638C73.683 84.6196 75 81.4402 75 78.125V21.875C75 18.5598 73.683 15.3804 71.3388 13.0362C68.9946 10.692 65.8152 9.375 62.5 9.375H53.125V18.75C53.9538 18.75 54.7487 19.0792 55.3347 19.6653C55.9208 20.2513 56.25 21.0462 56.25 21.875V34.375C56.25 35.2038 55.9208 35.9987 55.3347 36.5847C54.7487 37.1708 53.9538 37.5 53.125 37.5V43.75C53.125 44.5788 52.7958 45.3737 52.2097 45.9597C51.6237 46.5458 50.8288 46.875 50 46.875C49.1712 46.875 48.3763 46.5458 47.7903 45.9597C47.2042 45.3737 46.875 44.5788 46.875 43.75V37.5C46.0462 37.5 45.2513 37.1708 44.6653 36.5847C44.0792 35.9987 43.75 35.2038 43.75 34.375V21.875C43.75 21.0462 44.0792 20.2513 44.6653 19.6653C45.2513 19.0792 46.0462 18.75 46.875 18.75V9.375H37.5Z" fill="#1E1E1E"/>
</svg>
