<svg width="100" height="100" viewBox="0 0 100 100" fill="none" xmlns="http://www.w3.org/2000/svg">
<path d="M19.2292 75C17.3125 75 15.7125 74.3583 14.4292 73.075C13.1431 71.7889 12.5 70.1875 12.5 68.2708V31.7292C12.5 29.8125 13.1431 28.2125 14.4292 26.9292C15.7125 25.6431 17.3125 25 19.2292 25H80.7708C82.6875 25 84.2875 25.6431 85.5708 26.9292C86.8569 28.2125 87.5 29.8125 87.5 31.7292V68.2708C87.5 70.1875 86.8583 71.7875 85.575 73.0708C84.2889 74.3569 82.6875 75 80.7708 75H19.2292ZM19.2292 70.8333H80.7708C81.4097 70.8333 81.9972 70.5667 82.5333 70.0333C83.0667 69.4972 83.3333 68.9097 83.3333 68.2708V31.7292C83.3333 31.0903 83.0667 30.5028 82.5333 29.9667C81.9972 29.4333 81.4097 29.1667 80.7708 29.1667H19.2292C18.5903 29.1667 18.0028 29.4333 17.4667 29.9667C16.9333 30.5028 16.6667 31.0903 16.6667 31.7292V68.2708C16.6667 68.9097 16.9333 69.4972 17.4667 70.0333C18.0028 70.5667 18.5903 70.8333 19.2292 70.8333ZM34.2958 65.7083H65.7042V59.2917H34.2958V65.7083ZM21.7958 53.2083H28.2042V46.7917H21.7958V53.2083ZM34.2958 53.2083H40.7042V46.7917H34.2958V53.2083ZM46.7958 53.2083H53.2042V46.7917H46.7958V53.2083ZM59.2958 53.2083H65.7042V46.7917H59.2958V53.2083ZM71.7958 53.2083H78.2042V46.7917H71.7958V53.2083ZM21.7958 40.7083H28.2042V34.2917H21.7958V40.7083ZM34.2958 40.7083H40.7042V34.2917H34.2958V40.7083ZM46.7958 40.7083H53.2042V34.2917H46.7958V40.7083ZM59.2958 40.7083H65.7042V34.2917H59.2958V40.7083ZM71.7958 40.7083H78.2042V34.2917H71.7958V40.7083Z" fill="#1E1E1E"/>
</svg>
