<svg width="145" height="145" viewBox="0 0 145 145" fill="none" xmlns="http://www.w3.org/2000/svg">
<path d="M90.6251 84.5833C74.4938 84.5833 42.2917 92.6187 42.2917 108.75V120.833H138.958V108.75C138.958 92.6187 106.756 84.5833 90.6251 84.5833ZM90.6251 72.5C97.0345 72.5 103.181 69.9538 107.713 65.4217C112.246 60.8896 114.792 54.7427 114.792 48.3333C114.792 41.9239 112.246 35.777 107.713 31.2449C103.181 26.7127 97.0345 24.1666 90.6251 24.1666C84.2157 24.1666 78.0688 26.7127 73.5367 31.2449C69.0045 35.777 66.4584 41.9239 66.4584 48.3333C66.4584 54.7427 69.0045 60.8896 73.5367 65.4217C78.0688 69.9538 84.2157 72.5 90.6251 72.5ZM30.2084 80.2333L45.0105 89.2354L41.0834 72.2583L54.3751 60.9L36.9147 59.3895L30.2084 43.4395L23.3813 59.3895L6.04175 60.9L19.2126 72.2583L15.1042 89.2354L30.2084 80.2333Z" fill="#87BBA2"/>
</svg>
