<svg width="206" height="206" viewBox="0 0 206 206" fill="none" xmlns="http://www.w3.org/2000/svg">
<g clip-path="url(#clip0_68_27)">
<path d="M97.4039 73.4802L107.657 73.4802V131.581H97.4039L97.4039 73.4802ZM34.1768 102.53L102.53 34.1768C107.272 29.4348 114.877 29.4348 119.619 34.1768L136.707 51.2653C134.441 53.5313 133.168 56.6048 133.168 59.8095C133.168 63.0142 134.441 66.0876 136.707 68.3537C138.973 70.6197 142.047 71.8928 145.251 71.8928C148.456 71.8928 151.53 70.6197 153.796 68.3537L170.884 85.4421C175.626 90.1841 175.626 97.7885 170.884 102.53L102.53 170.884C100.264 173.15 97.1909 174.423 93.9862 174.423C90.7815 174.423 87.7081 173.15 85.442 170.884L68.3536 153.796C73.0956 149.054 73.0956 141.449 68.3536 136.707C66.0875 134.441 63.0141 133.168 59.8094 133.168C56.6047 133.168 53.5313 134.441 51.2652 136.707L34.1768 119.619C31.9107 117.353 30.6376 114.279 30.6376 111.075C30.6376 107.87 31.9107 104.797 34.1768 102.53ZM42.721 111.075L53.5721 121.926C57.6651 120.827 61.9754 120.825 66.0693 121.921C70.1632 123.016 73.8964 125.171 76.8931 128.168C79.8898 131.165 82.0445 134.898 83.1402 138.992C84.236 143.086 84.2342 147.396 83.1351 151.489L93.9862 162.34L162.34 93.9863L151.489 83.1351C147.396 84.2343 143.085 84.236 138.992 83.1403C134.898 82.0445 131.164 79.8899 128.168 76.8932C125.171 73.8964 123.016 70.1633 121.921 66.0694C120.825 61.9755 120.827 57.6652 121.926 53.5722L111.075 42.721L42.721 111.075ZM74.7618 96.1223C78.3076 92.5765 84.0322 92.5765 87.5781 96.1223C91.1239 99.6682 91.1239 105.393 87.5781 108.939C84.0322 112.484 78.3076 112.484 74.7618 108.939C71.2159 105.393 71.2159 99.6682 74.7618 96.1223ZM117.483 96.1223C121.029 92.5765 126.753 92.5765 130.299 96.1223C133.845 99.6682 133.845 105.393 130.299 108.939C126.753 112.484 121.029 112.484 117.483 108.939C113.937 105.393 113.937 99.6682 117.483 96.1223Z" fill="#87BBA2"/>
</g>
<defs>
<clipPath id="clip0_68_27">
<rect width="145" height="145" fill="white" transform="translate(0 102.531) rotate(-45)"/>
</clipPath>
</defs>
</svg>
