<svg width="100" height="100" viewBox="0 0 100 100" fill="none" xmlns="http://www.w3.org/2000/svg">
<path d="M8.33325 20.8333C8.33325 18.6232 9.21123 16.5036 10.774 14.9408C12.3368 13.378 14.4564 12.5 16.6666 12.5H83.3333C85.5434 12.5 87.663 13.378 89.2258 14.9408C90.7886 16.5036 91.6666 18.6232 91.6666 20.8333V66.6667C91.6666 68.8768 90.7886 70.9964 89.2258 72.5592C87.663 74.122 85.5434 75 83.3333 75H54.1666V83.3333H66.6666C67.7717 83.3333 68.8315 83.7723 69.6129 84.5537C70.3943 85.3351 70.8333 86.3949 70.8333 87.5C70.8333 88.6051 70.3943 89.6649 69.6129 90.4463C68.8315 91.2277 67.7717 91.6667 66.6666 91.6667H33.3333C32.2282 91.6667 31.1684 91.2277 30.387 90.4463C29.6056 89.6649 29.1666 88.6051 29.1666 87.5C29.1666 86.3949 29.6056 85.3351 30.387 84.5537C31.1684 83.7723 32.2282 83.3333 33.3333 83.3333H45.8333V75H16.6666C14.4564 75 12.3368 74.122 10.774 72.5592C9.21123 70.9964 8.33325 68.8768 8.33325 66.6667V20.8333ZM83.3333 66.6667V20.8333H16.6666V66.6667H83.3333Z" fill="#1E1E1E"/>
</svg>
