<svg width="70" height="70" viewBox="0 0 70 70" fill="none" xmlns="http://www.w3.org/2000/svg">
<path fill-rule="evenodd" clip-rule="evenodd" d="M17.5 31.5C19.3565 31.5 21.137 30.7625 22.4497 29.4497C23.7625 28.137 24.5 26.3565 24.5 24.5C24.5 22.6435 23.7625 20.863 22.4497 19.5503C21.137 18.2375 19.3565 17.5 17.5 17.5C15.6435 17.5 13.863 18.2375 12.5503 19.5503C11.2375 20.863 10.5 22.6435 10.5 24.5C10.5 26.3565 11.2375 28.137 12.5503 29.4497C13.863 30.7625 15.6435 31.5 17.5 31.5ZM17.5 35C18.8789 35 20.2443 34.7284 21.5182 34.2007C22.7921 33.6731 23.9496 32.8996 24.9246 31.9246C25.8996 30.9496 26.6731 29.7921 27.2007 28.5182C27.7284 27.2443 28 25.8789 28 24.5C28 23.1211 27.7284 21.7557 27.2007 20.4818C26.6731 19.2079 25.8996 18.0504 24.9246 17.0754C23.9496 16.1004 22.7921 15.3269 21.5182 14.7993C20.2443 14.2716 18.8789 14 17.5 14C14.7152 14 12.0445 15.1062 10.0754 17.0754C8.10625 19.0445 7 21.7152 7 24.5C7 27.2848 8.10625 29.9555 10.0754 31.9246C12.0445 33.8938 14.7152 35 17.5 35Z" fill="#364958"/>
<path fill-rule="evenodd" clip-rule="evenodd" d="M13.489 31.136C13.652 31.2986 13.7813 31.4917 13.8695 31.7043C13.9577 31.9169 14.0031 32.1448 14.0031 32.375C14.0031 32.6052 13.9577 32.8331 13.8695 33.0457C13.7813 33.2584 13.652 33.4515 13.489 33.614L12.306 34.7935C10.0294 37.0708 8.7503 40.1589 8.75 43.379V49.875C8.75 50.3392 8.56563 50.7843 8.23744 51.1125C7.90925 51.4407 7.46413 51.625 7 51.625C6.53587 51.625 6.09075 51.4407 5.76256 51.1125C5.43437 50.7843 5.25 50.3392 5.25 49.875V43.379C5.2505 39.2308 6.89845 35.2525 9.8315 32.319L11.011 31.136C11.1736 30.9731 11.3667 30.8438 11.5793 30.7555C11.7919 30.6673 12.0198 30.6219 12.25 30.6219C12.4802 30.6219 12.7081 30.6673 12.9207 30.7555C13.1333 30.8438 13.3264 30.9731 13.489 31.136ZM54.761 30.086C54.598 30.2486 54.4687 30.4417 54.3805 30.6543C54.2923 30.8669 54.2469 31.0948 54.2469 31.325C54.2469 31.5552 54.2923 31.7831 54.3805 31.9957C54.4687 32.2084 54.598 32.4015 54.761 32.564L55.944 33.7435C57.0714 34.871 57.9657 36.2095 58.5759 37.6826C59.186 39.1557 59.5 40.7346 59.5 42.329V49.875C59.5 50.3392 59.6844 50.7843 60.0126 51.1125C60.3408 51.4407 60.7859 51.625 61.25 51.625C61.7141 51.625 62.1592 51.4407 62.4874 51.1125C62.8156 50.7843 63 50.3392 63 49.875V42.329C62.9995 38.1808 61.3516 34.2025 58.4185 31.269L57.239 30.086C57.0764 29.9231 56.8833 29.7938 56.6707 29.7055C56.4581 29.6173 56.2302 29.5719 56 29.5719C55.7698 29.5719 55.5419 29.6173 55.3293 29.7055C55.1167 29.7938 54.9236 29.9231 54.761 30.086Z" fill="#364958"/>
<path fill-rule="evenodd" clip-rule="evenodd" d="M49 31.5C47.1435 31.5 45.363 30.7625 44.0503 29.4497C42.7375 28.137 42 26.3565 42 24.5C42 22.6435 42.7375 20.863 44.0503 19.5503C45.363 18.2375 47.1435 17.5 49 17.5C50.8565 17.5 52.637 18.2375 53.9497 19.5503C55.2625 20.863 56 22.6435 56 24.5C56 26.3565 55.2625 28.137 53.9497 29.4497C52.637 30.7625 50.8565 31.5 49 31.5ZM49 35C47.6211 35 46.2557 34.7284 44.9818 34.2007C43.7079 33.6731 42.5504 32.8996 41.5754 31.9246C40.6004 30.9496 39.8269 29.7921 39.2993 28.5182C38.7716 27.2443 38.5 25.8789 38.5 24.5C38.5 23.1211 38.7716 21.7557 39.2993 20.4818C39.8269 19.2079 40.6004 18.0504 41.5754 17.0754C42.5504 16.1004 43.7079 15.3269 44.9818 14.7993C46.2557 14.2716 47.6211 14 49 14C51.7848 14 54.4555 15.1062 56.4246 17.0754C58.3938 19.0445 59.5 21.7152 59.5 24.5C59.5 27.2848 58.3938 29.9555 56.4246 31.9246C54.4555 33.8938 51.7848 35 49 35ZM33.25 46.375C30.9294 46.375 28.7038 47.2969 27.0628 48.9378C25.4219 50.5788 24.5 52.8044 24.5 55.125V59.675C24.5 60.1391 24.3156 60.5842 23.9874 60.9124C23.6592 61.2406 23.2141 61.425 22.75 61.425C22.2859 61.425 21.8408 61.2406 21.5126 60.9124C21.1844 60.5842 21 60.1391 21 59.675V55.125C21 51.8761 22.2906 48.7603 24.5879 46.4629C26.8853 44.1656 30.0011 42.875 33.25 42.875C36.4989 42.875 39.6147 44.1656 41.9121 46.4629C44.2094 48.7603 45.5 51.8761 45.5 55.125V59.675C45.5 60.1391 45.3156 60.5842 44.9874 60.9124C44.6593 61.2406 44.2141 61.425 43.75 61.425C43.2859 61.425 42.8407 61.2406 42.5126 60.9124C42.1844 60.5842 42 60.1391 42 59.675V55.125C42 53.9759 41.7737 52.8381 41.3339 51.7765C40.8942 50.7149 40.2497 49.7503 39.4372 48.9378C38.6247 48.1253 37.6601 47.4808 36.5985 47.041C35.5369 46.6013 34.3991 46.375 33.25 46.375Z" fill="#364958"/>
<path fill-rule="evenodd" clip-rule="evenodd" d="M33.25 41.125C35.1065 41.125 36.887 40.3875 38.1997 39.0747C39.5125 37.762 40.25 35.9815 40.25 34.125C40.25 32.2685 39.5125 30.488 38.1997 29.1753C36.887 27.8625 35.1065 27.125 33.25 27.125C31.3935 27.125 29.613 27.8625 28.3003 29.1753C26.9875 30.488 26.25 32.2685 26.25 34.125C26.25 35.9815 26.9875 37.762 28.3003 39.0747C29.613 40.3875 31.3935 41.125 33.25 41.125ZM33.25 44.625C36.0348 44.625 38.7055 43.5188 40.6746 41.5496C42.6438 39.5805 43.75 36.9098 43.75 34.125C43.75 31.3402 42.6438 28.6695 40.6746 26.7004C38.7055 24.7312 36.0348 23.625 33.25 23.625C30.4652 23.625 27.7945 24.7312 25.8254 26.7004C23.8562 28.6695 22.75 31.3402 22.75 34.125C22.75 36.9098 23.8562 39.5805 25.8254 41.5496C27.7945 43.5188 30.4652 44.625 33.25 44.625Z" fill="#364958"/>
</svg>
