<svg width="300" height="300" viewBox="0 0 300 300" fill="none" xmlns="http://www.w3.org/2000/svg">
<path d="M264.638 192.475L190.738 69.3002C181.038 53.1377 166.2 43.8877 150 43.8877C133.8 43.8877 118.963 53.1377 109.263 69.2752L35.3625 192.475C25.5375 208.838 24.4625 226.288 32.425 240.35C40.375 254.425 55.9 262.5 75 262.5H225C244.1 262.5 259.625 254.425 267.575 240.363C275.538 226.3 274.463 208.85 264.638 192.475ZM150 219.363C139.325 219.363 130.625 210.675 130.625 200C130.625 189.313 139.313 180.613 150 180.613C160.688 180.613 169.375 189.313 169.375 200C169.375 210.675 160.675 219.363 150 219.363ZM170.413 126.563C170.275 126.95 152.9 169.913 152.9 169.913C152.425 171.088 151.275 171.863 150.013 171.863C148.75 171.863 147.6 171.088 147.125 169.913L129.738 126.938C128.687 124.335 128.14 121.557 128.125 118.75C128.125 106.688 137.938 96.8752 150 96.8752C153.543 96.8843 157.03 97.7527 160.164 99.4059C163.297 101.059 165.983 103.448 167.99 106.367C169.997 109.286 171.266 112.649 171.688 116.167C172.11 119.684 171.672 123.252 170.413 126.563Z" fill="#364958"/>
</svg>
